<svg width="54" height="54" viewBox="0 0 54 54" fill="none" xmlns="http://www.w3.org/2000/svg"><circle cx="27" cy="27" r="26" fill="url(#paint0_linear_1813_46871)" stroke="url(#paint1_linear_1813_46871)" stroke-width="2"></circle><path d="M32.1189 10.5711L32.1193 10.5713C32.1489 10.5899 32.1764 10.6118 32.2015 10.6369L32.5551 10.2833L32.2015 10.6369L39.1684 17.6038C39.2559 17.6912 39.3051 17.8099 39.3051 17.9337V24.9877C39.3051 25.2454 39.0962 25.4543 38.8384 25.4543C38.5807 25.4543 38.3718 25.2454 38.3718 24.9877V18.9002V18.4002H37.8718H31.871C31.6133 18.4002 31.4044 18.1913 31.4044 17.9335V11.9335V11.4335H30.9044H14.9333H14.4333V11.9335V41.9782V42.4782H14.9333H26.8554C27.1131 42.4782 27.3221 42.6871 27.3221 42.9448C27.3221 43.2025 27.1131 43.4114 26.8554 43.4114H13.9666C13.7089 43.4114 13.5 43.2025 13.5 42.9448V10.9669C13.5 10.7091 13.7089 10.5001 13.9666 10.5001L31.8528 10.5002L31.8568 10.5001L31.871 10.5C31.8716 10.5 31.8721 10.5 31.8727 10.5C31.964 10.5003 32.0478 10.5264 32.1189 10.5711ZM32.3377 16.9669V17.4669H32.8377H36.5045H37.7116L36.8581 16.6133L33.1913 12.9465L32.3377 12.0929V13.3V16.9669ZM20.3275 21.9045C20.3275 21.6468 20.5364 21.4378 20.7941 21.4378H31.3141C31.5719 21.4378 31.7808 21.6467 31.7808 21.9045C31.7808 22.1622 31.5719 22.3711 31.3141 22.3711H20.7941C20.5364 22.3711 20.3275 22.1622 20.3275 21.9045ZM17.2182 26.3633C17.2182 26.1055 17.4271 25.8966 17.6849 25.8966H27.8218C28.0796 25.8966 28.2885 26.1056 28.2885 26.3633C28.2885 26.621 28.0796 26.8299 27.8218 26.8299H17.6849C17.4271 26.8299 17.2182 26.621 17.2182 26.3633ZM17.5404 30.8221C17.5404 30.5643 17.7493 30.3554 18.007 30.3554H24.0857C24.3434 30.3554 24.5523 30.5644 24.5523 30.8221C24.5523 31.0798 24.3434 31.2887 24.0857 31.2887H18.007C17.7493 31.2887 17.5404 31.0798 17.5404 30.8221ZM17.5404 35.2809C17.5404 35.0232 17.7493 34.8143 18.007 34.8143H23.18C23.4377 34.8143 23.6466 35.0232 23.6466 35.2809C23.6466 35.5386 23.4377 35.7475 23.18 35.7475H18.007C17.7493 35.7475 17.5404 35.5386 17.5404 35.2809ZM34.3097 27.457C30.1425 27.457 26.7644 30.8352 26.7644 35.0023C26.7644 39.1694 30.1425 42.5475 34.3097 42.5475C38.4767 42.5475 41.8549 39.1694 41.8549 35.0023C41.8549 30.8352 38.4767 27.457 34.3097 27.457ZM25.831 35.0023C25.831 30.3197 29.627 26.5238 34.3097 26.5238C38.9922 26.5238 42.7882 30.3197 42.7882 35.0023C42.7882 39.6849 38.9922 43.4809 34.3097 43.4809C29.627 43.4809 25.831 39.6849 25.831 35.0023Z" fill="white" stroke="white"></path><path d="M34.5707 39.6445L34.9581 39.5549C36.1645 39.2759 36.9874 38.3317 36.9874 37.28C36.9874 36.031 35.8223 34.9158 34.2652 34.9158C33.1579 34.9158 32.1541 34.1031 32.1541 32.9837C32.1541 31.8644 33.1579 31.0517 34.2652 31.0517C34.996 31.0517 35.6598 31.395 36.0431 31.9418L36.0431 31.9418C36.1612 32.1104 36.2813 32.2558 36.4038 32.3563C36.5243 32.4552 36.6137 32.4837 36.6818 32.4837C36.7698 32.4837 36.8372 32.4461 36.8695 32.4106C36.8841 32.3944 36.8882 32.3826 36.8894 32.3777C36.8901 32.3747 36.8921 32.3663 36.8858 32.347L36.8858 32.347C36.632 31.5714 35.9101 30.9289 34.9581 30.7088L34.5707 30.6192V30.2216V29.493C34.5707 29.3243 34.4339 29.1875 34.2652 29.1875C34.0964 29.1875 33.9596 29.3243 33.9596 29.493V30.2216V30.6192L33.5723 30.7088C32.3659 30.9878 31.543 31.932 31.543 32.9837C31.543 34.2327 32.7081 35.3479 34.2652 35.3479C35.3725 35.3479 36.3762 36.1606 36.3762 37.28C36.3762 38.3993 35.3725 39.212 34.2652 39.212C33.5343 39.212 32.8706 38.8687 32.4874 38.3219L34.5707 39.6445ZM34.5707 39.6445V40.0421M34.5707 39.6445V40.0421M34.5707 40.0421V40.7707C34.5707 40.9394 34.4339 41.0762 34.2652 41.0762C34.0964 41.0762 33.9596 40.9394 33.9596 40.7707V40.0421V39.6445M34.5707 40.0421L33.9596 39.6445M33.9596 39.6445L33.5723 39.5549M33.9596 39.6445L33.5723 39.5549M33.5723 39.5549C32.6203 39.3348 31.8984 38.6923 31.6446 37.9167L31.6446 37.9167M33.5723 39.5549L31.6446 37.9167M31.6446 37.9167C31.6382 37.8974 31.6402 37.889 31.6409 37.886M31.6446 37.9167L31.6409 37.886M31.6409 37.886C31.6421 37.8811 31.6462 37.8694 31.6609 37.8532M31.6409 37.886L31.6609 37.8532M31.6609 37.8532C31.6931 37.8176 31.7605 37.78 31.8486 37.78M31.6609 37.8532L31.8486 37.78M31.8486 37.78C31.9166 37.78 32.006 37.8085 32.1266 37.9074M31.8486 37.78L32.1266 37.9074M32.1266 37.9074C32.249 38.0079 32.3691 38.1533 32.4873 38.3219L32.1266 37.9074Z" fill="white" stroke="white"></path><defs><linearGradient id="paint0_linear_1813_46871" x1="2" y1="27" x2="52" y2="27" gradientUnits="userSpaceOnUse"><stop stop-color="#154398"></stop><stop offset="1" stop-color="#ED1117"></stop></linearGradient><linearGradient id="paint1_linear_1813_46871" x1="2" y1="27" x2="52" y2="27" gradientUnits="userSpaceOnUse"><stop stop-color="#154398"></stop><stop offset="1" stop-color="#ED1117"></stop></linearGradient></defs></svg>